<?xml version="1.0" encoding="utf-8"?>
<!-- Generator: Adobe Illustrator 19.2.1, SVG Export Plug-In . SVG Version: 6.00 Build 0)  -->
<svg version="1.1" id="Capa_1" xmlns="http://www.w3.org/2000/svg" xmlns:xlink="http://www.w3.org/1999/xlink" x="0px" y="0px"
	 viewBox="0 0 276.5 135.8" style="enable-background:new 0 0 276.5 135.8;" xml:space="preserve">
<style type="text/css">
	.st0{fill:#FFFFFF;}
	.st1{fill:#B9C82C;}
	.st2{fill:#67882F;}
	.st3{fill:#305A24;}
</style>
<g>
	<g>
		<polygon class="st0" points="122.8,50.6 111.7,50.6 110.7,62.1 122.5,54 		"/>
		<g>
			<path class="st0" d="M105.2,50.6H91.6c-2.8,0-5.4,0.5-7.9,1.5c-2.4,1-4.7,2.4-6.6,4.2c-1.9,1.8-3.5,3.9-4.8,6.3
				c-1.2,2.4-2,5.1-2.2,7.9l-3.2,36.6H78l3.2-36.6c0.2-2.6,1.2-4.6,3.1-6.3c1.8-1.7,3.9-2.5,6.3-2.5h13.6L105.2,50.6z"/>
			<polygon class="st0" points="106.8,106.8 117.9,106.8 122.2,58.4 110.3,66.5 			"/>
			<path class="st0" d="M175,56.6c-1.6-1.8-3.6-3.2-5.9-4.2c-2.3-1-4.9-1.5-7.8-1.5h-12.2c-2.9,0-5.6,0.5-8.1,1.5
				c-2.5,1-4.7,2.4-6.6,4.2c-1.9,1.8-3.5,3.9-4.7,6.3c-1.2,2.4-2,5-2.2,7.7l-1.3,15.1c-0.2,2.8,0,5.6,0.8,8.1
				c0.8,2.5,1.9,4.7,3.5,6.6c1.6,1.9,3.5,3.5,5.8,4.6c2.3,1.2,5,1.8,7.9,1.8h12.2c2.9,0,5.6-0.6,8.2-1.8c2.5-1.2,4.7-2.7,6.6-4.6
				c1.9-1.9,3.4-4.1,4.7-6.6c1.2-2.5,2-5.2,2.2-8.1l1.3-15.1c0.2-2.7-0.1-5.3-0.9-7.7C177.7,60.5,176.5,58.4,175,56.6z M167.1,85.7
				c-0.3,3.2-1.3,5.6-3.3,7.5c-1.9,1.8-4,2.7-6.5,2.7h-12.2c-2.5,0-4.4-0.9-6-2.7c-1.6-1.8-2.3-4.3-2-7.5l1.3-15.1
				c0.2-2.4,1.2-4.3,3.1-6c1.9-1.7,4-2.5,6.5-2.5h12.2c2.5,0,4.5,0.8,6.1,2.5c1.6,1.7,2.2,3.6,2,6L167.1,85.7z"/>
			<path class="st0" d="M59.5,57c-1-1.1-2.2-2.1-3.5-3c1.2-1.5,2.2-3.1,3-4.8c1.2-2.5,2-5.2,2.2-8.1l0.8-8.6
				c0.2-2.7-0.1-5.3-0.9-7.7c-0.8-2.4-2-4.5-3.6-6.3c-1.6-1.8-3.6-3.2-5.9-4.2c-2.3-1-4.9-1.5-7.8-1.5H26.3c-2.9,0-5.6,0.5-8.1,1.5
				c-2.5,1-4.7,2.4-6.6,4.2c-1.9,1.8-3.5,3.9-4.7,6.3c-1.2,2.4-2,5-2.2,7.7L0.1,86.1c-0.3,2.8,0,5.6,0.8,8.1
				c0.8,2.5,1.9,4.7,3.5,6.6c1.6,1.9,3.5,3.5,5.8,4.6c2.3,1.2,5,1.8,7.9,1.8h22.9c2.9,0,5.7-0.6,8.2-1.8c2.5-1.2,4.7-2.7,6.6-4.6
				c1.9-1.9,3.4-4.1,4.7-6.6c1.2-2.5,2-5.2,2.2-8.1L63.9,71c0.2-2.7,0-5.3-0.9-7.7C62.3,60.9,61.1,58.8,59.5,57z M15.7,32.5
				c0.2-2.4,1.2-4.3,3.1-6c1.9-1.7,4-2.5,6.5-2.5h17.5c2.5,0,4.5,0.8,6.1,2.5c1.6,1.7,2.2,3.6,2,6l-0.8,8.6
				c-0.3,3.2-1.3,5.6-3.3,7.5c-1.7,1.6-3.6,2.5-5.8,2.7H14.1L15.7,32.5z M51.7,86.1c-0.3,3.2-1.4,5.6-3.3,7.5
				c-1.9,1.8-4,2.7-6.5,2.7H19c-2.5,0-4.4-0.9-6-2.7c-1.6-1.8-2.3-4.3-2-7.5l2.1-23.6h31.7c2.5,0,4.5,0.8,6.1,2.5
				c1.6,1.7,2.2,3.6,2,6L51.7,86.1z"/>
		</g>
	</g>
	<path class="st1" d="M177.3,12.8c6.4,16.6,24.3,49.2,29.9,59.2c4.1-2.1,19.8-9.6,35.9-12.5c-0.9-4.1-2.3-8.1-4.2-12.1
		c-8.1-17.2-19.3-24-19.5-24.1L184.2,2.3c0,0-3.9-2.3-6.8-2.3c-1.6,0-2,0.7-2.2,0.9C174.6,1.9,174,4.8,177.3,12.8L177.3,12.8z"/>
	<path class="st2" d="M230,114.1c12.1-18.2,16.7-35.7,13.7-52.1c-16.5,3-32.8,11-35.8,12.5l-10.1,48.1l0,0
		c-0.7,2.5-2.2,9.5-0.2,12.2c0.5,0.7,1.2,1,2.3,1c1.6,0,4.8-0.9,10.7-5.2C215.7,126.3,222.7,120.4,230,114.1z"/>
	<path class="st3" d="M266,51.6c-12.6-8.2-27.2-16.8-36.6-22.2c3.8,4.1,8.2,9.8,11.7,16.9c4.5,9.4,6.4,19.3,5.7,29.6
		c-0.7,10.6-4.3,21.5-10.6,32.6l33.9-30l0,0c0.1-0.1,6.8-5.6,6.4-12.8C276.2,60.7,272.7,56,266,51.6z"/>
</g>
</svg>
