<?xml version="1.0" encoding="utf-8"?>
<!-- Generator: Adobe Illustrator 19.2.1, SVG Export Plug-In . SVG Version: 6.00 Build 0)  -->
<svg version="1.1" id="Capa_1" xmlns="http://www.w3.org/2000/svg" xmlns:xlink="http://www.w3.org/1999/xlink" x="0px" y="0px"
	 viewBox="0 0 279.6 136" style="enable-background:new 0 0 279.6 136;" xml:space="preserve">
<style type="text/css">
	.st0{fill:#494748;}
	.st1{fill:url(#SVGID_1_);}
	.st2{fill:url(#SVGID_2_);}
	.st3{fill:url(#SVGID_3_);}
	.st4{fill:url(#SVGID_4_);}
	.st5{fill:#004F33;}
	.st6{fill:url(#SVGID_5_);}
	.st7{fill:url(#SVGID_6_);}
	.st8{fill:url(#SVGID_7_);}
</style>
<g>
	<g>
		<polygon class="st0" points="120.6,59.6 109.7,59.6 108.8,70.9 120.4,62.9 		"/>
		<g>
			<linearGradient id="SVGID_1_" gradientUnits="userSpaceOnUse" x1="84.5005" y1="115.1715" x2="84.5005" y2="59.6056">
				<stop  offset="0" style="stop-color:#000000"/>
				<stop  offset="1" style="stop-color:#504F51"/>
			</linearGradient>
			<path class="st1" d="M103.3,59.6H89.9c-2.7,0-5.3,0.5-7.7,1.5c-2.4,1-4.6,2.4-6.5,4.1c-1.9,1.8-3.5,3.8-4.7,6.2
				c-1.2,2.4-1.9,5-2.2,7.8l-3.1,36h10.9l3.1-36c0.2-2.5,1.2-4.5,3-6.2c1.8-1.6,3.8-2.4,6.2-2.4h13.4L103.3,59.6z"/>
			<linearGradient id="SVGID_2_" gradientUnits="userSpaceOnUse" x1="112.4451" y1="114.7946" x2="112.4451" y2="67.2736">
				<stop  offset="0" style="stop-color:#000000"/>
				<stop  offset="1" style="stop-color:#504F51"/>
			</linearGradient>
			<polygon class="st2" points="104.9,114.8 115.8,114.8 120,67.3 108.4,75.3 			"/>
			<linearGradient id="SVGID_3_" gradientUnits="userSpaceOnUse" x1="150.0612" y1="114.7946" x2="150.0612" y2="59.8566">
				<stop  offset="0" style="stop-color:#000000"/>
				<stop  offset="1" style="stop-color:#504F51"/>
			</linearGradient>
			<path class="st3" d="M171.8,65.5c-1.6-1.8-3.5-3.2-5.8-4.2c-2.3-1-4.9-1.5-7.7-1.5h-12c-2.8,0-5.5,0.5-7.9,1.5
				c-2.5,1-4.6,2.4-6.5,4.2c-1.9,1.7-3.4,3.8-4.6,6.2c-1.2,2.4-1.9,4.9-2.2,7.5l-1.3,14.9c-0.2,2.8,0,5.5,0.8,7.9
				c0.8,2.5,1.9,4.7,3.4,6.5c1.5,1.9,3.5,3.4,5.7,4.5c2.3,1.1,4.9,1.7,7.7,1.7h12c2.8,0,5.5-0.6,8-1.7c2.5-1.1,4.6-2.7,6.5-4.6
				c1.8-1.9,3.4-4.1,4.6-6.5c1.2-2.5,1.9-5.1,2.2-7.9l1.3-14.9c0.2-2.6-0.1-5.2-0.8-7.5C174.6,69.3,173.4,67.3,171.8,65.5z
				 M164.1,94.1c-0.3,3.1-1.3,5.5-3.2,7.3c-1.9,1.8-3.9,2.6-6.4,2.6h-12c-2.4,0-4.4-0.9-5.9-2.6c-1.6-1.8-2.2-4.2-1.9-7.3l1.3-14.9
				c0.2-2.3,1.2-4.3,3-5.9c1.9-1.7,4-2.5,6.4-2.5h12c2.5,0,4.4,0.8,6,2.5c1.5,1.6,2.2,3.5,2,5.9L164.1,94.1z"/>
			<linearGradient id="SVGID_4_" gradientUnits="userSpaceOnUse" x1="31.4399" y1="115.1715" x2="31.4399" y2="22.4503">
				<stop  offset="0" style="stop-color:#000000"/>
				<stop  offset="1" style="stop-color:#504F51"/>
			</linearGradient>
			<path class="st4" d="M58.5,65.9c-1-1.1-2.2-2.1-3.5-2.9c1.1-1.4,2.1-3,3-4.7c1.2-2.5,1.9-5.1,2.2-7.9l0.7-8.5
				c0.2-2.6-0.1-5.2-0.8-7.5c-0.8-2.3-2-4.4-3.5-6.2c-1.6-1.8-3.5-3.2-5.8-4.2c-2.3-1-4.9-1.5-7.7-1.5H25.9c-2.8,0-5.5,0.5-7.9,1.5
				c-2.5,1-4.6,2.4-6.5,4.2c-1.9,1.8-3.4,3.8-4.6,6.2c-1.2,2.4-1.9,4.9-2.2,7.5L0.1,94.4c-0.2,2.8,0,5.5,0.8,7.9
				c0.8,2.5,1.9,4.7,3.4,6.5c1.5,1.9,3.5,3.4,5.7,4.5c2.3,1.1,4.9,1.7,7.7,1.7h22.5c2.8,0,5.6-0.6,8-1.7c2.5-1.1,4.6-2.7,6.5-4.5
				c1.8-1.9,3.4-4.1,4.6-6.5c1.2-2.5,1.9-5.1,2.2-7.9l1.3-14.9c0.2-2.6-0.1-5.2-0.8-7.5C61.2,69.7,60,67.6,58.5,65.9z M15.5,41.8
				c0.2-2.3,1.2-4.3,3-5.9c1.9-1.6,4-2.5,6.4-2.5h17.2c2.5,0,4.4,0.8,6,2.5c1.5,1.6,2.2,3.5,2,5.9l-0.7,8.5
				c-0.3,3.1-1.3,5.5-3.2,7.3c-1.7,1.6-3.5,2.5-5.7,2.6H13.8L15.5,41.8z M50.7,94.4c-0.3,3.1-1.3,5.5-3.2,7.3
				c-1.9,1.8-3.9,2.6-6.4,2.6H18.7c-2.4,0-4.4-0.9-5.9-2.6c-1.6-1.8-2.2-4.2-1.9-7.3l2-23.2H44c2.5,0,4.4,0.8,6,2.5
				c1.5,1.6,2.2,3.5,2,5.9L50.7,94.4z"/>
		</g>
	</g>
	<g>
		<g>
			<path class="st5" d="M237,16.8c-2.1,0-3.8,1.7-3.8,3.8c0,2.1,1.7,3.8,3.8,3.8c2.1,0,3.8-1.7,3.8-3.8
				C240.8,18.5,239.1,16.8,237,16.8z M237,23.7c-1.7,0-3.1-1.4-3.1-3.1c0-1.7,1.4-3.1,3.1-3.1c1.7,0,3.1,1.4,3.1,3.1
				C240.2,22.3,238.8,23.7,237,23.7z"/>
			<path class="st5" d="M238,20.6L238,20.6c0.4-0.1,0.7-0.5,0.7-1c0-0.4-0.1-0.7-0.4-0.9c-0.3-0.2-0.7-0.3-1.3-0.3
				c-0.5,0-0.9,0-1.3,0.1v4.1h0.9v-1.6h0.3c0.4,0,0.6,0.1,0.7,0.7c0.1,0.5,0.2,0.8,0.3,1h1c-0.1-0.2-0.2-0.7-0.3-1.2
				C238.4,21,238.3,20.7,238,20.6z M237,20.2h-0.4v-1.1c0.1,0,0.2,0,0.4,0c0.4,0,0.7,0.2,0.7,0.6C237.8,20,237.5,20.2,237,20.2z"/>
		</g>
		<g>
			
				<linearGradient id="SVGID_5_" gradientUnits="userSpaceOnUse" x1="-138.3586" y1="-205.8698" x2="-58.5458" y2="-205.8698" gradientTransform="matrix(-0.1134 0.9936 -0.9936 -0.1134 2.6879 118.8823)">
				<stop  offset="0" style="stop-color:#D9DC53"/>
				<stop  offset="1" style="stop-color:#7D992D"/>
			</linearGradient>
			<path class="st6" d="M264,47.9L188.2,2.4c0,0-17.7-10.3-8.6,11.9c7.6,19.7,31.2,61.4,31.2,61.4s6.9,19.1,25.2,2.6
				C252.1,63.7,264,47.9,264,47.9z"/>
			
				<linearGradient id="SVGID_6_" gradientUnits="userSpaceOnUse" x1="194.2207" y1="85.9583" x2="280.2433" y2="85.9583" gradientTransform="matrix(0.9911 -0.1332 0.1332 0.9911 -9.2653 43.1396)">
				<stop  offset="0" style="stop-color:#24441C"/>
				<stop  offset="8.277023e-002" style="stop-color:#325123"/>
				<stop  offset="0.287" style="stop-color:#4C6B2D"/>
				<stop  offset="0.4859" style="stop-color:#607E30"/>
				<stop  offset="0.6752" style="stop-color:#6F8D30"/>
				<stop  offset="0.851" style="stop-color:#7A962E"/>
				<stop  offset="1" style="stop-color:#7D992D"/>
			</linearGradient>
			<path class="st7" d="M209.7,73.7l-10.1,47.8c0,0-7.4,25.3,14.4,9.2c19.1-15.5,58.7-51.3,58.7-51.3s8.6-10.7,1.1-15.5
				C253.2,50.7,209.7,73.7,209.7,73.7z"/>
			<g>
				
					<linearGradient id="SVGID_7_" gradientUnits="userSpaceOnUse" x1="266.1352" y1="59.6433" x2="266.1352" y2="-31.8866" gradientTransform="matrix(0.9935 -0.1134 0.1134 0.9935 -12.4166 82.3275)">
					<stop  offset="0" style="stop-color:#153511"/>
					<stop  offset="0.1703" style="stop-color:#193813"/>
					<stop  offset="0.3293" style="stop-color:#244118"/>
					<stop  offset="0.4838" style="stop-color:#314E1F"/>
					<stop  offset="0.6356" style="stop-color:#415F27"/>
					<stop  offset="0.7853" style="stop-color:#55732D"/>
					<stop  offset="0.9316" style="stop-color:#6E8B2F"/>
					<stop  offset="1" style="stop-color:#7D992D"/>
				</linearGradient>
				<path class="st8" d="M272.8,79.4c0,0,17.7-14.3-4.2-28.4c-20.6-13.3-46-27.6-46-27.6s49.1,33.5,10.8,90.9L272.8,79.4z"/>
			</g>
		</g>
	</g>
</g>
</svg>
